<svg xmlns="http://www.w3.org/2000/svg" width="1600" height="520" viewBox="0 0 1600 520" role="img" aria-labelledby="title desc">
<title id="title">Abstract public health and data network</title>
<desc id="desc">A restrained abstract network of maps, data blocks, and care pathway nodes for a professional projects header.</desc>
<rect width="1600" height="520" fill="#f6f8fb"/>
<g fill="none" stroke="#0f4c81" stroke-opacity=".16" stroke-width="2">
<path d="M90 410C230 300 310 390 430 270s210-70 330-170 220 20 340-20 250 10 410-35"/>
<path d="M130 170c120 20 170-55 290-20s190 110 320 45 180-165 330-95 255 160 420 120"/>
</g>
<g fill="#0f4c81" fill-opacity=".12">
<circle cx="170" cy="382" r="18"/><circle cx="420" cy="270" r="14"/><circle cx="760" cy="102" r="18"/><circle cx="1070" cy="102" r="13"/><circle cx="1385" cy="208" r="18"/>
</g>
<g fill="#7ab800" fill-opacity=".22">
<rect x="1030" y="300" width="180" height="26" rx="4"/><rect x="1030" y="342" width="260" height="26" rx="4"/><rect x="1030" y="384" width="130" height="26" rx="4"/>
</g>
<g fill="#0f4c81" fill-opacity=".08">
<rect x="1210" y="78" width="230" height="150" rx="16"/><rect x="230" y="94" width="270" height="180" rx="16"/><rect x="560" y="310" width="320" height="120" rx="16"/>
</g>
<g stroke="#1f77b4" stroke-opacity=".18" stroke-width="1">
<line x1="40" y1="0" x2="40" y2="520"/><line x1="130" y1="0" x2="130" y2="520"/><line x1="220" y1="0" x2="220" y2="520"/><line x1="310" y1="0" x2="310" y2="520"/><line x1="400" y1="0" x2="400" y2="520"/><line x1="490" y1="0" x2="490" y2="520"/><line x1="580" y1="0" x2="580" y2="520"/><line x1="670" y1="0" x2="670" y2="520"/><line x1="760" y1="0" x2="760" y2="520"/><line x1="850" y1="0" x2="850" y2="520"/><line x1="940" y1="0" x2="940" y2="520"/><line x1="1030" y1="0" x2="1030" y2="520"/><line x1="1120" y1="0" x2="1120" y2="520"/><line x1="1210" y1="0" x2="1210" y2="520"/><line x1="1300" y1="0" x2="1300" y2="520"/><line x1="1390" y1="0" x2="1390" y2="520"/><line x1="1480" y1="0" x2="1480" y2="520"/><line x1="1570" y1="0" x2="1570" y2="520"/>
<line x1="0" y1="70" x2="1600" y2="70"/><line x1="0" y1="145" x2="1600" y2="145"/><line x1="0" y1="220" x2="1600" y2="220"/><line x1="0" y1="295" x2="1600" y2="295"/><line x1="0" y1="370" x2="1600" y2="370"/><line x1="0" y1="445" x2="1600" y2="445"/>
</g>
</svg>
